<mxfile host="app.diagrams.net" modified="2024-01-18T08:56:56.697Z" agent="Mozilla/5.0 (Windows NT 10.0; Win64; x64) AppleWebKit/537.36 (KHTML, like Gecko) Chrome/120.0.0.0 Safari/537.36 Edg/120.0.0.0" etag="j9NnQVhX3i30SM0EJdBG" version="22.1.21" type="github">
  <diagram id="C5RBs43oDa-KdzZeNtuy" name="Page-1">
    <mxGraphModel dx="1688" dy="933" grid="1" gridSize="10" guides="1" tooltips="1" connect="1" arrows="1" fold="1" page="1" pageScale="1" pageWidth="827" pageHeight="1169" math="0" shadow="0">
      <root>
        <mxCell id="WIyWlLk6GJQsqaUBKTNV-0" />
        <mxCell id="WIyWlLk6GJQsqaUBKTNV-1" parent="WIyWlLk6GJQsqaUBKTNV-0" />
        <mxCell id="lrJF7BD7MlawXil0EtXN-1" style="edgeStyle=orthogonalEdgeStyle;rounded=0;orthogonalLoop=1;jettySize=auto;html=1;entryX=0;entryY=0.5;entryDx=0;entryDy=0;" edge="1" parent="WIyWlLk6GJQsqaUBKTNV-1" source="WIyWlLk6GJQsqaUBKTNV-3" target="lrJF7BD7MlawXil0EtXN-0">
          <mxGeometry relative="1" as="geometry" />
        </mxCell>
        <mxCell id="lrJF7BD7MlawXil0EtXN-2" value="No" style="edgeLabel;html=1;align=center;verticalAlign=middle;resizable=0;points=[];" vertex="1" connectable="0" parent="lrJF7BD7MlawXil0EtXN-1">
          <mxGeometry x="-0.3055" y="-2" relative="1" as="geometry">
            <mxPoint x="16" y="-12" as="offset" />
          </mxGeometry>
        </mxCell>
        <mxCell id="lrJF7BD7MlawXil0EtXN-18" value="" style="edgeStyle=orthogonalEdgeStyle;rounded=0;orthogonalLoop=1;jettySize=auto;html=1;" edge="1" parent="WIyWlLk6GJQsqaUBKTNV-1" source="WIyWlLk6GJQsqaUBKTNV-3" target="lrJF7BD7MlawXil0EtXN-4">
          <mxGeometry relative="1" as="geometry" />
        </mxCell>
        <mxCell id="lrJF7BD7MlawXil0EtXN-19" value="Yes" style="edgeLabel;html=1;align=center;verticalAlign=middle;resizable=0;points=[];" vertex="1" connectable="0" parent="lrJF7BD7MlawXil0EtXN-18">
          <mxGeometry x="0.131" y="-1" relative="1" as="geometry">
            <mxPoint x="-19" as="offset" />
          </mxGeometry>
        </mxCell>
        <mxCell id="WIyWlLk6GJQsqaUBKTNV-3" value="Basic Porject를 사용하여&amp;nbsp; Ethernet 통신이 가능한가요?" style="rounded=1;whiteSpace=wrap;html=1;fontSize=12;glass=0;strokeWidth=1;shadow=0;" parent="WIyWlLk6GJQsqaUBKTNV-1" vertex="1">
          <mxGeometry x="150" y="60" width="180" height="60" as="geometry" />
        </mxCell>
        <mxCell id="lrJF7BD7MlawXil0EtXN-0" value="복구 불가능" style="rounded=1;whiteSpace=wrap;html=1;fillColor=#f8cecc;strokeColor=#b85450;" vertex="1" parent="WIyWlLk6GJQsqaUBKTNV-1">
          <mxGeometry x="430" y="60" width="180" height="60" as="geometry" />
        </mxCell>
        <mxCell id="lrJF7BD7MlawXil0EtXN-16" value="" style="edgeStyle=orthogonalEdgeStyle;rounded=0;orthogonalLoop=1;jettySize=auto;html=1;" edge="1" parent="WIyWlLk6GJQsqaUBKTNV-1" source="lrJF7BD7MlawXil0EtXN-4" target="lrJF7BD7MlawXil0EtXN-13">
          <mxGeometry relative="1" as="geometry" />
        </mxCell>
        <mxCell id="lrJF7BD7MlawXil0EtXN-17" value="Yes" style="edgeLabel;html=1;align=center;verticalAlign=middle;resizable=0;points=[];" vertex="1" connectable="0" parent="lrJF7BD7MlawXil0EtXN-16">
          <mxGeometry x="-0.0414" y="-1" relative="1" as="geometry">
            <mxPoint x="-19" as="offset" />
          </mxGeometry>
        </mxCell>
        <mxCell id="lrJF7BD7MlawXil0EtXN-55" style="edgeStyle=orthogonalEdgeStyle;rounded=0;orthogonalLoop=1;jettySize=auto;html=1;entryX=0;entryY=0.25;entryDx=0;entryDy=0;" edge="1" parent="WIyWlLk6GJQsqaUBKTNV-1" source="lrJF7BD7MlawXil0EtXN-4" target="lrJF7BD7MlawXil0EtXN-10">
          <mxGeometry relative="1" as="geometry">
            <Array as="points">
              <mxPoint x="360" y="215" />
              <mxPoint x="360" y="215" />
            </Array>
          </mxGeometry>
        </mxCell>
        <mxCell id="lrJF7BD7MlawXil0EtXN-58" value="No" style="edgeLabel;html=1;align=center;verticalAlign=middle;resizable=0;points=[];" vertex="1" connectable="0" parent="lrJF7BD7MlawXil0EtXN-55">
          <mxGeometry x="-0.0767" y="1" relative="1" as="geometry">
            <mxPoint y="-14" as="offset" />
          </mxGeometry>
        </mxCell>
        <mxCell id="lrJF7BD7MlawXil0EtXN-4" value="Abatement Project를 사용하여 PLC Booting이 되나요?" style="rounded=1;whiteSpace=wrap;html=1;" vertex="1" parent="WIyWlLk6GJQsqaUBKTNV-1">
          <mxGeometry x="150" y="200" width="180" height="60" as="geometry" />
        </mxCell>
        <mxCell id="lrJF7BD7MlawXil0EtXN-22" value="" style="edgeStyle=orthogonalEdgeStyle;rounded=0;orthogonalLoop=1;jettySize=auto;html=1;" edge="1" parent="WIyWlLk6GJQsqaUBKTNV-1" source="lrJF7BD7MlawXil0EtXN-10" target="lrJF7BD7MlawXil0EtXN-21">
          <mxGeometry relative="1" as="geometry" />
        </mxCell>
        <mxCell id="lrJF7BD7MlawXil0EtXN-23" value="Yes" style="edgeLabel;html=1;align=center;verticalAlign=middle;resizable=0;points=[];" vertex="1" connectable="0" parent="lrJF7BD7MlawXil0EtXN-22">
          <mxGeometry x="-0.0264" y="-3" relative="1" as="geometry">
            <mxPoint x="-17" as="offset" />
          </mxGeometry>
        </mxCell>
        <mxCell id="lrJF7BD7MlawXil0EtXN-27" value="" style="edgeStyle=orthogonalEdgeStyle;rounded=0;orthogonalLoop=1;jettySize=auto;html=1;" edge="1" parent="WIyWlLk6GJQsqaUBKTNV-1" source="lrJF7BD7MlawXil0EtXN-10" target="lrJF7BD7MlawXil0EtXN-26">
          <mxGeometry relative="1" as="geometry" />
        </mxCell>
        <mxCell id="lrJF7BD7MlawXil0EtXN-28" value="No" style="edgeLabel;html=1;align=center;verticalAlign=middle;resizable=0;points=[];" vertex="1" connectable="0" parent="lrJF7BD7MlawXil0EtXN-27">
          <mxGeometry x="0.1511" y="-2" relative="1" as="geometry">
            <mxPoint x="-7" y="-12" as="offset" />
          </mxGeometry>
        </mxCell>
        <mxCell id="lrJF7BD7MlawXil0EtXN-10" value="&amp;nbsp;Flash Memory가 문제가 있는지 확인하였나요? (CCODE=-1)" style="rounded=1;whiteSpace=wrap;html=1;" vertex="1" parent="WIyWlLk6GJQsqaUBKTNV-1">
          <mxGeometry x="430" y="200" width="180" height="60" as="geometry" />
        </mxCell>
        <mxCell id="lrJF7BD7MlawXil0EtXN-25" value="" style="edgeStyle=orthogonalEdgeStyle;rounded=0;orthogonalLoop=1;jettySize=auto;html=1;" edge="1" parent="WIyWlLk6GJQsqaUBKTNV-1" source="lrJF7BD7MlawXil0EtXN-13" target="lrJF7BD7MlawXil0EtXN-24">
          <mxGeometry relative="1" as="geometry" />
        </mxCell>
        <mxCell id="lrJF7BD7MlawXil0EtXN-39" value="Yes" style="edgeLabel;html=1;align=center;verticalAlign=middle;resizable=0;points=[];" vertex="1" connectable="0" parent="lrJF7BD7MlawXil0EtXN-25">
          <mxGeometry x="-0.0819" relative="1" as="geometry">
            <mxPoint x="-20" as="offset" />
          </mxGeometry>
        </mxCell>
        <mxCell id="lrJF7BD7MlawXil0EtXN-53" style="edgeStyle=orthogonalEdgeStyle;rounded=0;orthogonalLoop=1;jettySize=auto;html=1;entryX=0;entryY=0.5;entryDx=0;entryDy=0;" edge="1" parent="WIyWlLk6GJQsqaUBKTNV-1" source="lrJF7BD7MlawXil0EtXN-13" target="lrJF7BD7MlawXil0EtXN-10">
          <mxGeometry relative="1" as="geometry">
            <Array as="points">
              <mxPoint x="360" y="370" />
              <mxPoint x="360" y="230" />
            </Array>
          </mxGeometry>
        </mxCell>
        <mxCell id="lrJF7BD7MlawXil0EtXN-56" value="No" style="edgeLabel;html=1;align=center;verticalAlign=middle;resizable=0;points=[];" vertex="1" connectable="0" parent="lrJF7BD7MlawXil0EtXN-53">
          <mxGeometry x="-0.1277" y="-1" relative="1" as="geometry">
            <mxPoint x="-21" y="5" as="offset" />
          </mxGeometry>
        </mxCell>
        <mxCell id="lrJF7BD7MlawXil0EtXN-13" value="Abatement Project를 사용하여 PLC Booting이 되나요?" style="rounded=1;whiteSpace=wrap;html=1;" vertex="1" parent="WIyWlLk6GJQsqaUBKTNV-1">
          <mxGeometry x="150" y="340" width="180" height="60" as="geometry" />
        </mxCell>
        <mxCell id="lrJF7BD7MlawXil0EtXN-21" value="복구 불가능" style="rounded=1;whiteSpace=wrap;html=1;fillColor=#f8cecc;strokeColor=#b85450;" vertex="1" parent="WIyWlLk6GJQsqaUBKTNV-1">
          <mxGeometry x="430" y="340" width="180" height="60" as="geometry" />
        </mxCell>
        <mxCell id="lrJF7BD7MlawXil0EtXN-38" value="" style="edgeStyle=orthogonalEdgeStyle;rounded=0;orthogonalLoop=1;jettySize=auto;html=1;" edge="1" parent="WIyWlLk6GJQsqaUBKTNV-1" source="lrJF7BD7MlawXil0EtXN-24" target="lrJF7BD7MlawXil0EtXN-37">
          <mxGeometry relative="1" as="geometry" />
        </mxCell>
        <mxCell id="lrJF7BD7MlawXil0EtXN-45" value="Yes" style="edgeLabel;html=1;align=center;verticalAlign=middle;resizable=0;points=[];" vertex="1" connectable="0" parent="lrJF7BD7MlawXil0EtXN-38">
          <mxGeometry x="0.044" y="-2" relative="1" as="geometry">
            <mxPoint x="-18" y="-2" as="offset" />
          </mxGeometry>
        </mxCell>
        <mxCell id="lrJF7BD7MlawXil0EtXN-54" style="edgeStyle=orthogonalEdgeStyle;rounded=0;orthogonalLoop=1;jettySize=auto;html=1;entryX=0;entryY=0.75;entryDx=0;entryDy=0;" edge="1" parent="WIyWlLk6GJQsqaUBKTNV-1" source="lrJF7BD7MlawXil0EtXN-24" target="lrJF7BD7MlawXil0EtXN-10">
          <mxGeometry relative="1" as="geometry">
            <Array as="points">
              <mxPoint x="400" y="510" />
              <mxPoint x="400" y="245" />
            </Array>
          </mxGeometry>
        </mxCell>
        <mxCell id="lrJF7BD7MlawXil0EtXN-57" value="No" style="edgeLabel;html=1;align=center;verticalAlign=middle;resizable=0;points=[];" vertex="1" connectable="0" parent="lrJF7BD7MlawXil0EtXN-54">
          <mxGeometry x="0.5101" relative="1" as="geometry">
            <mxPoint x="-10" y="65" as="offset" />
          </mxGeometry>
        </mxCell>
        <mxCell id="lrJF7BD7MlawXil0EtXN-24" value="PLC(192.168.2.200)에 접속이 가능한가요?" style="rounded=1;whiteSpace=wrap;html=1;" vertex="1" parent="WIyWlLk6GJQsqaUBKTNV-1">
          <mxGeometry x="150" y="480" width="180" height="60" as="geometry" />
        </mxCell>
        <mxCell id="lrJF7BD7MlawXil0EtXN-31" value="" style="edgeStyle=orthogonalEdgeStyle;rounded=0;orthogonalLoop=1;jettySize=auto;html=1;" edge="1" parent="WIyWlLk6GJQsqaUBKTNV-1" source="lrJF7BD7MlawXil0EtXN-26" target="lrJF7BD7MlawXil0EtXN-30">
          <mxGeometry relative="1" as="geometry" />
        </mxCell>
        <mxCell id="lrJF7BD7MlawXil0EtXN-34" value="Yes" style="edgeLabel;html=1;align=center;verticalAlign=middle;resizable=0;points=[];" vertex="1" connectable="0" parent="lrJF7BD7MlawXil0EtXN-31">
          <mxGeometry x="0.2444" y="-2" relative="1" as="geometry">
            <mxPoint x="-18" y="-10" as="offset" />
          </mxGeometry>
        </mxCell>
        <mxCell id="lrJF7BD7MlawXil0EtXN-67" style="rounded=0;orthogonalLoop=1;jettySize=auto;html=1;entryX=1;entryY=0;entryDx=0;entryDy=0;exitX=0;exitY=1;exitDx=0;exitDy=0;" edge="1" parent="WIyWlLk6GJQsqaUBKTNV-1" source="lrJF7BD7MlawXil0EtXN-26" target="lrJF7BD7MlawXil0EtXN-21">
          <mxGeometry relative="1" as="geometry" />
        </mxCell>
        <mxCell id="lrJF7BD7MlawXil0EtXN-68" value="No" style="edgeLabel;html=1;align=center;verticalAlign=middle;resizable=0;points=[];" vertex="1" connectable="0" parent="lrJF7BD7MlawXil0EtXN-67">
          <mxGeometry x="-0.1396" y="-3" relative="1" as="geometry">
            <mxPoint x="-15" y="-12" as="offset" />
          </mxGeometry>
        </mxCell>
        <mxCell id="lrJF7BD7MlawXil0EtXN-26" value="Flash Memory Project로 복구를 진행하여 복구 완료 되었습니까?" style="rounded=1;whiteSpace=wrap;html=1;" vertex="1" parent="WIyWlLk6GJQsqaUBKTNV-1">
          <mxGeometry x="710" y="200" width="180" height="60" as="geometry" />
        </mxCell>
        <mxCell id="lrJF7BD7MlawXil0EtXN-36" value="" style="edgeStyle=orthogonalEdgeStyle;rounded=0;orthogonalLoop=1;jettySize=auto;html=1;" edge="1" parent="WIyWlLk6GJQsqaUBKTNV-1" source="lrJF7BD7MlawXil0EtXN-30" target="lrJF7BD7MlawXil0EtXN-35">
          <mxGeometry relative="1" as="geometry" />
        </mxCell>
        <mxCell id="lrJF7BD7MlawXil0EtXN-64" value="Yes" style="edgeLabel;html=1;align=center;verticalAlign=middle;resizable=0;points=[];" vertex="1" connectable="0" parent="lrJF7BD7MlawXil0EtXN-36">
          <mxGeometry x="0.0778" relative="1" as="geometry">
            <mxPoint x="-20" as="offset" />
          </mxGeometry>
        </mxCell>
        <mxCell id="lrJF7BD7MlawXil0EtXN-65" style="edgeStyle=orthogonalEdgeStyle;rounded=0;orthogonalLoop=1;jettySize=auto;html=1;entryX=1;entryY=0.5;entryDx=0;entryDy=0;" edge="1" parent="WIyWlLk6GJQsqaUBKTNV-1" source="lrJF7BD7MlawXil0EtXN-30" target="lrJF7BD7MlawXil0EtXN-21">
          <mxGeometry relative="1" as="geometry" />
        </mxCell>
        <mxCell id="lrJF7BD7MlawXil0EtXN-66" value="No" style="edgeLabel;html=1;align=center;verticalAlign=middle;resizable=0;points=[];" vertex="1" connectable="0" parent="lrJF7BD7MlawXil0EtXN-65">
          <mxGeometry x="0.0433" y="-1" relative="1" as="geometry">
            <mxPoint as="offset" />
          </mxGeometry>
        </mxCell>
        <mxCell id="lrJF7BD7MlawXil0EtXN-30" value="Flash Memory Project로 복구를 진행하여 복구 완료 되었습니까?" style="rounded=1;whiteSpace=wrap;html=1;" vertex="1" parent="WIyWlLk6GJQsqaUBKTNV-1">
          <mxGeometry x="710" y="340" width="180" height="60" as="geometry" />
        </mxCell>
        <mxCell id="lrJF7BD7MlawXil0EtXN-35" value="복구 완료" style="rounded=1;whiteSpace=wrap;html=1;fillColor=#dae8fc;strokeColor=#6c8ebf;" vertex="1" parent="WIyWlLk6GJQsqaUBKTNV-1">
          <mxGeometry x="710" y="480" width="180" height="60" as="geometry" />
        </mxCell>
        <mxCell id="lrJF7BD7MlawXil0EtXN-48" value="" style="edgeStyle=orthogonalEdgeStyle;rounded=0;orthogonalLoop=1;jettySize=auto;html=1;" edge="1" parent="WIyWlLk6GJQsqaUBKTNV-1" source="lrJF7BD7MlawXil0EtXN-37" target="lrJF7BD7MlawXil0EtXN-46">
          <mxGeometry relative="1" as="geometry" />
        </mxCell>
        <mxCell id="lrJF7BD7MlawXil0EtXN-51" value="Yes" style="edgeLabel;html=1;align=center;verticalAlign=middle;resizable=0;points=[];" vertex="1" connectable="0" parent="lrJF7BD7MlawXil0EtXN-48">
          <mxGeometry x="-0.1653" y="-2" relative="1" as="geometry">
            <mxPoint x="-18" as="offset" />
          </mxGeometry>
        </mxCell>
        <mxCell id="lrJF7BD7MlawXil0EtXN-49" value="" style="edgeStyle=orthogonalEdgeStyle;rounded=0;orthogonalLoop=1;jettySize=auto;html=1;" edge="1" parent="WIyWlLk6GJQsqaUBKTNV-1" source="lrJF7BD7MlawXil0EtXN-37" target="lrJF7BD7MlawXil0EtXN-47">
          <mxGeometry relative="1" as="geometry" />
        </mxCell>
        <mxCell id="lrJF7BD7MlawXil0EtXN-50" value="No" style="edgeLabel;html=1;align=center;verticalAlign=middle;resizable=0;points=[];" vertex="1" connectable="0" parent="lrJF7BD7MlawXil0EtXN-49">
          <mxGeometry x="0.04" relative="1" as="geometry">
            <mxPoint y="-20" as="offset" />
          </mxGeometry>
        </mxCell>
        <mxCell id="lrJF7BD7MlawXil0EtXN-37" value="Config와 t5가 Import되어 있는지 확인되나요?" style="rounded=1;whiteSpace=wrap;html=1;" vertex="1" parent="WIyWlLk6GJQsqaUBKTNV-1">
          <mxGeometry x="150" y="620" width="180" height="60" as="geometry" />
        </mxCell>
        <mxCell id="lrJF7BD7MlawXil0EtXN-46" value="Controller 정상." style="rounded=1;whiteSpace=wrap;html=1;" vertex="1" parent="WIyWlLk6GJQsqaUBKTNV-1">
          <mxGeometry x="150" y="760" width="180" height="60" as="geometry" />
        </mxCell>
        <mxCell id="lrJF7BD7MlawXil0EtXN-52" style="edgeStyle=orthogonalEdgeStyle;rounded=0;orthogonalLoop=1;jettySize=auto;html=1;entryX=0.5;entryY=1;entryDx=0;entryDy=0;" edge="1" parent="WIyWlLk6GJQsqaUBKTNV-1" source="lrJF7BD7MlawXil0EtXN-47" target="lrJF7BD7MlawXil0EtXN-35">
          <mxGeometry relative="1" as="geometry" />
        </mxCell>
        <mxCell id="lrJF7BD7MlawXil0EtXN-59" value="Yes" style="edgeLabel;html=1;align=center;verticalAlign=middle;resizable=0;points=[];" vertex="1" connectable="0" parent="lrJF7BD7MlawXil0EtXN-52">
          <mxGeometry x="-0.3089" relative="1" as="geometry">
            <mxPoint x="-3" y="-10" as="offset" />
          </mxGeometry>
        </mxCell>
        <mxCell id="lrJF7BD7MlawXil0EtXN-62" style="edgeStyle=orthogonalEdgeStyle;rounded=0;orthogonalLoop=1;jettySize=auto;html=1;entryX=0.5;entryY=1;entryDx=0;entryDy=0;" edge="1" parent="WIyWlLk6GJQsqaUBKTNV-1" source="lrJF7BD7MlawXil0EtXN-47" target="lrJF7BD7MlawXil0EtXN-21">
          <mxGeometry relative="1" as="geometry" />
        </mxCell>
        <mxCell id="lrJF7BD7MlawXil0EtXN-63" value="No" style="edgeLabel;html=1;align=center;verticalAlign=middle;resizable=0;points=[];" vertex="1" connectable="0" parent="lrJF7BD7MlawXil0EtXN-62">
          <mxGeometry x="-0.1571" relative="1" as="geometry">
            <mxPoint x="-20" y="-7" as="offset" />
          </mxGeometry>
        </mxCell>
        <mxCell id="lrJF7BD7MlawXil0EtXN-47" value="Config와 t5가 Import 되나요?" style="rounded=1;whiteSpace=wrap;html=1;" vertex="1" parent="WIyWlLk6GJQsqaUBKTNV-1">
          <mxGeometry x="430" y="620" width="180" height="60" as="geometry" />
        </mxCell>
      </root>
    </mxGraphModel>
  </diagram>
</mxfile>
